# xmcd
#
# Track frame offsets: 
#        150
#        16385
#        27755
#        45167
#        61025
#        79402
#        92552
#        109072
#        121842
#        134815
#        150095
#        163920
#
# Disc length: 2388 seconds
#
# Revision: 0
# Processed by: cddbd v1.5.2PL0 Copyright (c) Steve Scherf et al.
# Submitted via: ExactAudioCopy v0.90b4
#
DISCID=8909520c
DTITLE=Jennifer Johnston - Jennifer Johnston
DYEAR=1996
DGENRE=Country
TTITLE0=800 Reasons
TTITLE1=Trouble is a Woman
TTITLE2=Last Train Home
TTITLE3=Goodbye Comin' to You
TTITLE4=Slow Dance
TTITLE5=Draggin' My Chains
TTITLE6=Tonight My Broken Heart
TTITLE7=One of These Days
TTITLE8=New Memories
TTITLE9=Why Did You Tell Me That
TTITLE10=Even If I Cried
TTITLE11=Shadow of Your Wings
EXTD=
EXTT0=
EXTT1=
EXTT2=
EXTT3=
EXTT4=
EXTT5=
EXTT6=
EXTT7=
EXTT8=
EXTT9=
EXTT10=
EXTT11=
PLAYORDER=
